<!DOCTYPE svg PUBLIC "-//W3C//DTD SVG 20010904//EN"
 "http://www.w3.org/TR/2001/REC-SVG-20010904/DTD/svg10.dtd">
<svg version="1.0" xmlns="http://www.w3.org/2000/svg"
 width="520.000000pt" height="133.000000pt" viewBox="0 0 520.000000 133.000000"
 preserveAspectRatio="xMidYMid meet">

<g transform="translate(0.000000,133.000000) scale(0.100000,-0.100000)"
fill="#000000" stroke="none">
<path d="M526 1224 c-10 -9 -39 -60 -67 -113 -27 -53 -81 -154 -119 -226 -91
-168 -160 -313 -167 -347 -5 -25 -3 -28 22 -28 20 0 47 19 104 72 42 39 89 79
105 89 15 9 62 48 105 86 75 69 121 101 121 86 0 -4 -11 -51 -25 -103 -28
-107 -30 -141 -13 -173 30 -56 87 -62 155 -16 l45 31 48 -26 c26 -14 58 -26
70 -26 88 0 181 130 174 245 -2 23 0 46 4 52 11 17 182 96 211 97 39 2 37 -23
-8 -119 -23 -47 -41 -88 -41 -90 0 -3 -9 -25 -21 -49 -16 -35 -18 -49 -9 -65
16 -31 42 -25 85 20 22 22 98 95 169 162 l129 122 -8 -45 c-16 -89 -12 -166
11 -197 30 -39 94 -39 153 0 50 33 61 34 91 2 39 -42 81 -34 166 30 69 52 104
67 104 45 0 -16 53 -59 80 -65 14 -3 40 -1 58 4 17 5 32 7 32 4 0 -3 -20 -42
-44 -86 -73 -133 -186 -418 -188 -472 -2 -57 32 -91 68 -67 6 4 22 52 34 107
27 121 97 330 135 405 40 79 125 204 195 287 52 61 60 75 51 92 -6 10 -16 21
-23 24 -22 7 -66 -21 -91 -59 -44 -64 -154 -144 -199 -144 -30 0 -48 17 -40
39 3 9 25 41 49 72 67 86 53 132 -24 81 -22 -15 -68 -55 -101 -88 -34 -34 -83
-76 -109 -93 -26 -17 -57 -38 -68 -46 -10 -8 -27 -15 -37 -15 -37 0 -16 37 62
113 93 89 127 147 111 190 -11 27 -23 32 -84 28 -90 -5 -183 -118 -212 -259
-9 -42 -76 -92 -99 -73 -21 18 -25 58 -10 120 7 31 13 75 14 98 0 37 -3 43
-25 49 -43 11 -68 -3 -163 -91 -50 -48 -92 -85 -92 -82 0 2 7 21 15 40 8 20
15 48 15 62 0 34 -50 85 -82 85 -30 0 -142 -38 -220 -74 -39 -19 -64 -25 -83
-20 -25 6 -41 -7 -185 -156 -175 -178 -195 -190 -194 -109 0 25 17 97 39 161
41 122 42 168 6 168 -22 0 -140 -85 -251 -181 -123 -106 -170 -141 -170 -128
0 14 93 200 156 310 105 186 134 257 108 266 -7 2 -19 -4 -28 -13z m1423 -281
c-38 -49 -53 -53 -23 -8 9 14 21 25 26 25 6 0 4 -8 -3 -17z m-939 -174 c0 -51
-21 -117 -46 -144 -19 -21 -32 -26 -62 -23 -44 4 -53 28 -28 76 19 37 116 133
128 126 4 -3 8 -19 8 -35z"/>
<path d="M2839 1008 c-52 -13 -138 -86 -245 -206 -89 -100 -108 -130 -95 -149
6 -10 45 -33 55 -33 2 0 22 28 42 63 21 34 70 93 108 130 62 61 126 114 126
105 0 -2 -5 -19 -10 -38 -17 -59 -15 -138 5 -160 10 -11 23 -16 33 -12 23 8
146 82 205 122 27 18 50 30 53 27 3 -3 6 -38 7 -78 3 -89 17 -119 55 -119 29
0 119 47 141 74 20 23 27 21 74 -29 39 -40 49 -45 87 -45 28 0 55 8 75 21 32
22 75 87 75 113 0 8 4 18 10 21 11 7 181 27 186 22 2 -2 -3 -22 -12 -44 -15
-37 -14 -42 3 -78 10 -22 33 -48 51 -58 30 -18 39 -19 88 -8 42 10 60 20 83
48 17 20 33 49 36 64 4 15 12 32 19 38 14 11 116 34 123 27 2 -2 -1 -25 -8
-50 -9 -35 -9 -54 -1 -72 15 -33 45 -31 112 8 108 61 125 68 161 68 32 0 42
-6 71 -42 18 -24 42 -51 53 -60 31 -27 148 -60 188 -54 93 15 237 87 237 119
0 23 -32 22 -97 -3 -74 -28 -153 -35 -210 -20 -60 17 -88 38 -129 99 -49 73
-98 75 -222 12 -45 -23 -47 -22 -33 26 21 74 -40 91 -187 53 -142 -38 -135
-33 -161 -102 -28 -75 -38 -88 -62 -88 -12 0 -21 10 -25 28 -3 15 -7 32 -8 37
-2 6 10 25 25 43 31 35 36 61 17 80 -22 22 -253 10 -360 -19 l-37 -10 6 -50
c5 -45 3 -53 -22 -79 -34 -36 -58 -38 -79 -8 -22 31 -20 45 10 102 21 39 23
50 12 57 -34 22 -103 -10 -192 -92 -36 -33 -69 -58 -74 -55 -8 5 -2 67 13 132
6 26 3 34 -16 48 -13 9 -32 16 -42 16 -24 0 -115 -43 -196 -92 -35 -22 -65
-37 -68 -34 -3 3 4 36 16 75 36 119 26 135 -70 109z"/>
</g>
</svg>